<svg xmlns="http://www.w3.org/2000/svg" viewBox="0 0 128 128"><path fill="#3153d7" d="M61.56 0h5.25c35.04 2.43 58.53 27.76 61.19 62.06v4c-2.58 34.68-26.61 59.49-61.56 61.94h-5C27.45 125.81 1.81 100.27 0 66.19v-4.5C1.83 27.62 27.59 2.09 61.56 0Zm55.74 63.99A53.3 53.3 0 0 0 64 10.69a53.3 53.3 0 0 0-53.3 53.3 53.3 53.3 0 0 0 53.3 53.3 53.3 53.3 0 0 0 53.3-53.3Z"/><path fill="#3153d7" d="M56.06 42.69c16.29 9.75 21.58-11.83 33.5-4.48 12.43 7.66-.43 27.22-13.27 15.35-6.34-5.86-13.3-8.43-21.24-3.5-2.71 1.67-5.13 4.67-8.5 5.48-7.45 1.78-13.67-3.55-13.08-10.99.55-6.94 8.76-11.22 14.88-8.05 2.66 1.37 5.18 4.67 7.71 6.19Z"/><path fill="#61138f" d="M107.56 55.69c8.58 5.47 3.11 19.16-6.96 17.31-3.11-.56-5.54-3.11-8.16-5.11-7.47-5.73-14.18-3.56-20.75 2.23-2.91 2.57-5.77 3.37-9.49 2.86-4.93-.69-7.57-5.38-12.12-7.34-6.08-2.61-11.76-.43-16.48 3.76-12.99 11.52-24.16-7.84-12.22-14.23 7.78-4.16 10.27 2.27 15.97 5.28 15.46 8.17 17.6-10.16 30.84-5.69 3 1.01 5.13 4.03 7.88 5.64 15.12 8.86 19.74-12.21 31.49-4.71Z"/><path fill="#3153d7" d="M90.81 73.44c10.47 9.26-2.73 25.21-14.61 14.34-7.62-6.97-15.76-8.67-23.97-1.3q-7.95 7.14-15.01 1.32c-9.71-8.02.68-22.8 11.7-16.74 1.88 1.04 3.66 3.21 5.57 4.7 16.78 13.1 24.48-12.81 36.32-2.32Z"/></svg>